<svg width="378" height="243" viewBox="0 0 378 243" fill="none" xmlns="http://www.w3.org/2000/svg">
<path d="M74.5436 132L26.9262 222.348L20 236L34.2852 236L132.117 236L139.477 222.348L149 204.278L81.9027 204.278L119.564 132L74.5436 132Z" fill="#A8EAE4"/>
<path d="M125.355 148.717L88.8589 79.0722L10.0002 79.0722L46.1709 148.717L125.355 148.717Z" fill="#5CCEC4"/>
<path d="M342.909 141.722L324.335 105.835L279.692 20.0721L48.6554 20.0721L140.223 196.16L160.752 236L294.03 236L342.909 141.722Z" fill="#A8EAE4"/>
<path d="M181.505 46.531L96.7812 209.541L271.118 209.541L355.842 46.531L181.505 46.531Z" fill="#5CCEC4"/>
<path d="M155.111 -9.25853e-07L76.2519 -4.37287e-06L97.1071 40.4485L176.292 40.4485L155.111 -9.25853e-07Z" fill="#5CCEC4"/>
<mask id="mask0" mask-type="alpha" maskUnits="userSpaceOnUse" x="0" y="7" width="378" height="202">
<path d="M0 6.99999L-8.83777e-06 209L272.28 209L378 7L0 6.99999Z" fill="#5CCEC4"/>
</mask>
<g mask="url(#mask0)">
<path d="M281.75 78.375L250.5 78.375L250.5 69.25C250.5 67.5924 250.5 64.4876 250.5 63C249.34 63 245.908 63 244.25 63L131.75 63C130.092 63 126.66 63 125.5 63C125.5 64.4876 125.5 67.5924 125.5 69.25L125.5 78.375L94.25 78.375C92.5924 78.375 89.5464 78.375 88 78.375C88 79.9373 88 82.9674 88 84.625L88 107.531C88 130.281 106.438 149.969 130.906 153.313C131.187 153.343 131.47 153.343 131.75 153.313L132.125 153.313C135.97 161.038 141.373 167.883 147.994 173.417C154.614 178.951 162.309 183.055 170.594 185.469C169.062 199.344 159.469 211.625 155.562 216.125L148.938 216.125C147.28 216.125 145.69 216.783 144.518 217.956C143.346 219.128 142.688 220.717 142.688 222.375L142.688 256.75C142.688 258.408 143.346 259.997 144.518 261.169C145.69 262.342 147.28 263 148.938 263L227.062 263C228.72 263 230.31 262.342 231.482 261.169C232.654 259.997 233.312 258.408 233.312 256.75L233.312 222.375C233.312 220.717 232.654 219.128 231.482 217.956C230.31 216.783 228.72 216.125 227.062 216.125L220.437 216.125C216.5 211.625 206.937 199.406 205.406 185.5C213.684 183.072 221.373 178.964 227.992 173.431C234.611 167.898 240.018 161.06 243.875 153.344L244.25 153.344C244.53 153.375 244.813 153.375 245.094 153.344C269.562 149.969 288 130.281 288 107.531L288 84.625C288 82.9674 288 80.4523 288 78.375C285.423 78.375 283.408 78.375 281.75 78.375ZM100.5 107.531L100.5 90.875L125.5 90.875L125.5 125.5C125.513 130.322 126.09 135.125 127.219 139.813C111.656 135.469 100.5 122.375 100.5 107.531ZM275.5 107.531C275.5 122.406 264.344 135.469 248.781 139.813C249.91 135.125 250.487 130.322 250.5 125.5L250.5 90.875L275.5 90.875L275.5 107.531Z" fill="#161B20"/>
</g>
<path d="M344 25.8505L363.877 25.8505L353.776 6.69067L344 25.8505Z" fill="#5CCEC4"/>
<path d="M337.136 174.871L314 174.871L315.955 170.918L339.091 170.918L337.136 174.871Z" fill="#5CCEC4"/>
<path d="M351.148 147.5L328.012 147.5L330.293 143.547L353.103 143.547L351.148 147.5Z" fill="#5CCEC4"/>
<path d="M354.732 140.505L331.596 140.505L333.551 136.552L356.688 136.552L354.732 140.505Z" fill="#5CCEC4"/>
<path d="M344.305 161.186L321.168 161.186L323.124 157.232L346.26 157.232L344.305 161.186Z" fill="#5CCEC4"/>
<path d="M347.563 154.191L324.753 154.191L326.708 150.237L349.844 150.237L347.563 154.191Z" fill="#5CCEC4"/>
<path d="M364.183 122.562L361.902 126.82L338.765 126.82L341.046 122.562L364.183 122.562Z" fill="#5CCEC4"/>
<path d="M340.72 167.876L317.584 167.876L319.539 163.923L342.675 163.923L340.72 167.876Z" fill="#5CCEC4"/>
<path d="M358.317 133.815L335.181 133.815L337.136 129.861L360.272 129.861L358.317 133.815Z" fill="#5CCEC4"/>
<path d="M82.443 242.231L59.6326 242.231L61.5878 238.281L84.724 238.281L82.443 242.231Z" fill="#5CCEC4"/>
<path d="M91.8931 224L89.612 228.558L66.4758 228.558L68.7568 224L91.8931 224Z" fill="#5CCEC4"/>
<path d="M86.0275 235.242L62.8912 235.242L65.1723 231.292L87.9826 231.292L86.0275 235.242Z" fill="#5CCEC4"/>
</svg>