<svg width="12" height="22" viewBox="0 0 12 22" fill="none" xmlns="http://www.w3.org/2000/svg">
<path d="M10.9447 0.504279L8.25837 0.5C5.24033 0.5 3.28993 2.48632 3.28993 5.56068V7.894H0.58891C0.355509 7.894 0.166504 8.08183 0.166504 8.31351V11.6942C0.166504 11.9259 0.355725 12.1135 0.58891 12.1135H3.28993V20.6441C3.28993 20.8758 3.47894 21.0634 3.71234 21.0634H7.23641C7.46981 21.0634 7.65882 20.8756 7.65882 20.6441V12.1135H10.8169C11.0503 12.1135 11.2394 11.9259 11.2394 11.6942L11.2406 8.31351C11.2406 8.20227 11.196 8.09573 11.1169 8.01701C11.0378 7.93828 10.9301 7.894 10.818 7.894H7.65882V5.91602C7.65882 4.96532 7.88704 4.4827 9.13465 4.4827L10.9443 4.48206C11.1775 4.48206 11.3665 4.29423 11.3665 4.06276V0.923578C11.3665 0.692321 11.1777 0.504706 10.9447 0.504279Z" fill="#5CCEC4"/>
</svg>
