<svg width="174" height="104" viewBox="0 0 174 104" fill="none" xmlns="http://www.w3.org/2000/svg">
<path d="M127.654 88.144L127.649 88.1395C127.361 87.8931 127.072 87.645 126.781 87.3954C119.902 81.4944 112.058 74.7654 102.643 69.4038C99.0471 67.3343 92.9454 66.3667 87.0102 66.3667C81.0758 66.3667 74.9748 67.3341 71.3788 69.4031C61.9632 74.7648 54.1188 81.4941 47.2397 87.3953C46.9487 87.6449 46.6595 87.893 46.3719 88.1395L46.3667 88.144C40.0786 93.6094 34.7559 98.1748 29.7688 100.76C24.8469 103.311 20.3875 103.864 15.7126 101.472L15.7107 101.471C7.24572 97.1615 2.26675 87.8641 1.21095 76.1068C0.156237 64.3615 3.04429 50.3061 10.1622 36.8028L10.1647 36.798C20.7212 16.5078 38.216 2.63303 54.3725 1.37101C68.12 0.726021 93.6525 1.07238 109.811 1.29158C112.061 1.32209 114.128 1.35014 115.957 1.3727C133.601 1.73383 152.941 15.7992 163.856 36.7977L163.861 36.808C170.885 49.9427 174.001 64.1284 172.718 76.4368C171.433 88.5714 166.326 97.2471 158.306 101.473C153.535 103.867 149.073 103.307 144.183 100.76C139.22 98.176 133.945 93.6122 127.654 88.144Z" stroke="#5CCEC4" stroke-width="2"/>
<path d="M120.71 27.2646L120.71 27.2459V27.2271C120.71 22.9965 124.361 19.3745 128.68 19.3745C133.012 19.3745 136.649 22.8255 136.649 27.2271C136.649 31.4712 133.171 35.0797 128.68 35.0797C124.138 35.0797 120.546 31.6162 120.71 27.2646Z" stroke="#5CCEC4" stroke-width="2"/>
<path d="M120.71 56.3671C120.71 52.123 124.188 48.5145 128.679 48.5145C133.171 48.5145 136.649 52.123 136.649 56.3671C136.649 60.5977 132.998 64.2197 128.679 64.2197C124.361 64.2197 120.71 60.5977 120.71 56.3671Z" stroke="#5CCEC4" stroke-width="2"/>
<path d="M113.956 49.6504L113.937 49.6496H113.918C109.6 49.6496 105.949 46.0276 105.949 41.797C105.949 37.5529 109.426 33.9445 113.918 33.9445C118.25 33.9445 121.887 37.3955 121.887 41.797C121.887 46.2335 118.224 49.8124 113.956 49.6504Z" stroke="#5CCEC4" stroke-width="2"/>
<path d="M135.472 41.7971C135.472 37.5529 138.949 33.9445 143.441 33.9445C147.932 33.9445 151.41 37.5529 151.41 41.7971C151.41 46.0276 147.759 49.6496 143.441 49.6496C139.122 49.6496 135.472 46.0276 135.472 41.7971Z" stroke="#5CCEC4" stroke-width="2"/>
<path d="M53.3102 32.9444V33.9444H54.3102H60.1027C64.568 33.9444 68.0719 37.7106 68.0719 41.9814C68.0719 46.2255 64.5944 49.834 60.1027 49.834H54.3102H53.3102V50.834V56.3669C53.3102 60.5975 49.6594 64.2195 45.341 64.2195C41.0089 64.2195 37.3718 60.7685 37.3718 56.3669V50.6496V49.6496H36.3718H30.5793C26.2609 49.6496 22.6101 46.0276 22.6101 41.797C22.6101 37.5529 26.0876 33.9444 30.5793 33.9444H36.3718H37.3718V32.9444V27.2271C37.3718 22.9965 41.0226 19.3745 45.341 19.3745C49.6731 19.3745 53.3102 22.8255 53.3102 27.2271V32.9444Z" stroke="#5CCEC4" stroke-width="2"/>
</svg>
