<svg width="22" height="18" viewBox="0 0 22 18" fill="none" xmlns="http://www.w3.org/2000/svg">
<path d="M21.5 2.85327C20.7191 3.19583 19.8869 3.42289 19.0194 3.53314C19.9119 3.00027 20.5931 2.16289 20.9133 1.15358C20.0812 1.6497 19.1624 2.00014 18.1833 2.1957C17.3932 1.35439 16.2671 0.833328 15.0386 0.833328C12.6551 0.833328 10.7362 2.76795 10.7362 5.13964C10.7362 5.48089 10.7651 5.80902 10.8359 6.12139C7.25675 5.94683 4.08969 4.23139 1.96212 1.6182C1.59069 2.26264 1.37281 3.00027 1.37281 3.79433C1.37281 5.28533 2.14062 6.60702 3.28513 7.3722C2.59344 7.35908 1.91488 7.15827 1.34 6.84195C1.34 6.85508 1.34 6.87214 1.34 6.8892C1.34 8.98133 2.83231 10.7191 4.78925 11.1194C4.43881 11.2152 4.05687 11.2611 3.6605 11.2611C3.38488 11.2611 3.10662 11.2454 2.84544 11.1876C3.40325 12.8926 4.98613 14.146 6.86825 14.1867C5.4035 15.3325 3.54369 16.0229 1.53031 16.0229C1.17725 16.0229 0.838625 16.0071 0.5 15.9638C2.40706 17.1936 4.66719 17.8958 7.1045 17.8958C15.0267 17.8958 19.358 11.3333 19.358 5.64495C19.358 5.45464 19.3514 5.27089 19.3423 5.08845C20.1967 4.48208 20.9146 3.72477 21.5 2.85327Z" fill="#5CCEC4"/>
</svg>
