<svg width="26" height="13" viewBox="0 0 26 13" fill="none" xmlns="http://www.w3.org/2000/svg">
<path d="M20.9979 7.37455C20.592 6.93461 20.7081 6.73887 20.9979 6.34562C21.0031 6.34113 24.3535 2.36725 24.6987 1.01958L24.7007 1.01868C24.8723 0.527561 24.7007 0.166626 23.8713 0.166626H21.1265C20.4278 0.166626 20.1056 0.476384 19.933 0.822953C19.933 0.822953 18.5355 3.69427 16.5586 5.55551C15.9205 6.09332 15.6255 6.26571 15.2772 6.26571C15.1057 6.26571 14.8389 6.09332 14.8389 5.6022V1.01868C14.8389 0.429695 14.6433 0.166626 14.0649 0.166626H9.74903C9.31075 0.166626 9.05029 0.441368 9.05029 0.697254C9.05029 1.25572 10.0388 1.38411 10.1413 2.95534V6.36447C10.1413 7.11148 9.98334 7.24885 9.63292 7.24885C8.69988 7.24885 6.43526 4.36586 5.09323 1.06627C4.82231 0.426104 4.55767 0.167524 3.8537 0.167524H1.10792C0.324452 0.167524 0.166504 0.477281 0.166504 0.823851C0.166504 1.43618 1.09955 4.48079 4.50537 8.50315C6.77522 11.2488 9.97183 12.7365 12.8797 12.7365C14.6276 12.7365 14.841 12.4061 14.841 11.8378C14.841 9.21424 14.6831 8.96644 15.5586 8.96644C15.9644 8.96644 16.6632 9.13882 18.295 10.4631C20.16 12.0335 20.4665 12.7365 21.5104 12.7365H24.2551C25.0376 12.7365 25.434 12.4061 25.206 11.7543C24.684 10.3832 21.1569 7.5631 20.9979 7.37455Z" fill="#5CCEC4"/>
</svg>
